<svg xmlns="http://www.w3.org/2000/svg" version="1.1" xmlns:xlink="http://www.w3.org/1999/xlink" xmlns:svgjs="http://svgjs.dev/svgjs" width="1500" height="1500" viewBox="0 0 1500 1500"><rect width="1500" height="1500" fill="#000000"></rect><g transform="matrix(0.6666666666666666,0,0,0.6666666666666666,249.39393939393938,674.1217463081666)"><svg viewBox="0 0 396 60" data-background-color="#f0e9e1" preserveAspectRatio="xMidYMid meet" height="227" width="1500" xmlns="http://www.w3.org/2000/svg" xmlns:xlink="http://www.w3.org/1999/xlink"><g id="tight-bounds" transform="matrix(1,0,0,1,0.2400000000000091,0.08388912892073108)"><svg viewBox="0 0 395.52 59.832221742158524" height="59.832221742158524" width="395.52"><g><svg viewBox="0 0 395.52000000000004 59.83222174215853" height="59.832221742158524" width="395.52"><g><svg viewBox="0 0 395.52000000000004 59.83222174215853" height="59.83222174215853" width="395.52000000000004"><g id="textblocktransform"><svg viewBox="0 0 395.52000000000004 59.83222174215853" height="59.83222174215853" width="395.52000000000004" id="textblock"><g><svg viewBox="0 0 395.52000000000004 59.83222174215853" height="59.83222174215853" width="395.52000000000004"><g transform="matrix(1,0,0,1,0,0)"><svg width="395.52000000000004" viewBox="0 -37.99 325.81088545998693 49.290000000000006" height="59.83222174215853" data-palette-color="#e01a4f"><g transform="matrix(1,0,0,1,0,0)"><g><svg width="18.28725697332462" viewBox="1.78 -36.86 80.9 37.36" height="8.443359375" data-palette-color="#e01a4f" id="scriptelement" x="307.5236284866623" y="-37.99"><path d="M12.91-30.02L1.78-30.02 1.78-36.36 31.64-36.36 31.64-30.02 20.51-30.02 20.51 0 12.91 0 12.91-30.02ZM36.57-36.36L44.26-36.36 44.26 0 36.57 0 36.57-36.36ZM82.68-23.63L82.68-23.63 74.91-23.63Q74.69-25.14 74.04-26.32 73.38-27.5 72.35-28.34 71.32-29.17 69.98-29.62 68.64-30.06 67.08-30.06L67.08-30.06Q64.25-30.06 62.16-28.67 60.06-27.27 58.91-24.62 57.75-21.96 57.75-18.18L57.75-18.18Q57.75-14.29 58.92-11.65 60.08-9 62.18-7.65 64.27-6.3 67.02-6.3L67.02-6.3Q68.57-6.3 69.89-6.71 71.21-7.12 72.24-7.91 73.27-8.7 73.96-9.84 74.64-10.97 74.91-12.43L74.91-12.43 82.68-12.39Q82.38-9.89 81.18-7.57 79.98-5.26 77.97-3.44 75.95-1.62 73.18-0.56 70.4 0.5 66.9 0.5L66.9 0.5Q62.03 0.5 58.21-1.7 54.38-3.91 52.17-8.08 49.96-12.25 49.96-18.18L49.96-18.18Q49.96-24.13 52.2-28.3 54.43-32.48 58.27-34.67 62.1-36.86 66.9-36.86L66.9-36.86Q70.06-36.86 72.77-35.97 75.47-35.09 77.57-33.39 79.66-31.69 80.99-29.24 82.31-26.79 82.68-23.63Z" opacity="1" transform="matrix(1,0,0,1,0,0)" fill="#ffffff" class="undefined-123" data-fill-palette-color="primary" id="yy-123"></path></svg></g></g><path d="M18.26 0.39L18.26 0.39Q16.21 0.39 15.23-0.46 14.26-1.32 14.26-3.2L14.26-3.2 14.26-34.2Q13.48-34.13 12.32-33.92 11.16-33.72 9.89-33.33 8.62-32.93 7.35-32.39 6.08-31.84 5.08-31.12 4.08-30.4 3.44-29.49 2.81-28.59 2.81-27.49L2.81-27.49Q2.81-26.71 3.02-26.25 3.22-25.78 3.49-25.55 3.76-25.32 4.04-25.26 4.32-25.2 4.44-25.2L4.44-25.2Q5.05-25.2 5.44-25.4 5.83-25.61 6.15-25.84 6.47-26.07 6.75-26.28 7.03-26.49 7.4-26.49L7.4-26.49Q7.69-26.49 8.02-26.35 8.35-26.22 8.63-25.93 8.91-25.63 9.11-25.16 9.3-24.68 9.3-24L9.3-24Q9.3-23.02 8.92-22.31 8.54-21.61 7.95-21.13 7.35-20.65 6.58-20.42 5.81-20.19 5.05-20.19L5.05-20.19Q3.88-20.19 2.94-20.59 2-21 1.34-21.7 0.68-22.41 0.34-23.36 0-24.32 0-25.39L0-25.39Q0-28.25 1.57-30.33 3.15-32.42 5.88-33.8 8.62-35.18 12.26-35.84 15.89-36.5 20.04-36.5L20.04-36.5Q22.02-36.5 23.9-36.46 25.78-36.43 27.33-36.35 28.88-36.28 30-36.18 31.13-36.08 31.64-35.96L31.64-35.96Q32.13-35.84 32.42-35.61 32.71-35.38 32.86-35.08 33.01-34.79 33.06-34.46 33.11-34.13 33.11-33.79L33.11-33.79Q33.11-33.52 33.03-33.17 32.96-32.81 32.81-32.5 32.67-32.18 32.45-31.96 32.23-31.74 31.91-31.74L31.91-31.74Q31.71-31.74 31.51-31.91 31.3-32.08 30.93-32.32 30.57-32.57 29.94-32.89 29.32-33.2 28.31-33.47 27.29-33.74 25.82-33.96 24.34-34.18 22.24-34.25L22.24-34.25 22.24-3.2Q22.24-1.32 21.26-0.46 20.29 0.39 18.26 0.39ZM41.65-6.69L41.65-12.65Q41.65-13.26 41.26-13.57 40.87-13.89 40.26-13.89L40.26-13.89Q39.4-13.89 38.63-13.5 37.86-13.11 37.28-12.35 36.69-11.6 36.35-10.49 36.01-9.38 36.01-7.91L36.01-7.91Q36.01-6.49 36.22-5.57 36.42-4.64 36.78-4.09 37.13-3.54 37.6-3.32 38.06-3.1 38.57-3.1L38.57-3.1Q39.21-3.1 39.77-3.43 40.33-3.76 40.74-4.27 41.16-4.79 41.4-5.42 41.65-6.05 41.65-6.69L41.65-6.69ZM37.77-23.34L37.77-23.34Q36.94-23.34 36.23-23.14 35.52-22.95 35.01-22.66 34.49-22.36 34.2-22.01 33.91-21.66 33.91-21.34L33.91-21.34Q33.91-20.97 34.29-20.81 34.67-20.65 35.13-20.45 35.59-20.24 35.97-19.86 36.35-19.48 36.35-18.7L36.35-18.7Q36.35-18.19 36.14-17.76 35.94-17.33 35.58-17 35.23-16.67 34.75-16.49 34.27-16.31 33.76-16.31L33.76-16.31Q32.39-16.31 31.55-17.24 30.71-18.16 30.71-19.7L30.71-19.7Q30.71-21.19 31.49-22.25 32.27-23.32 33.53-24 34.79-24.68 36.37-25.01 37.96-25.34 39.55-25.34L39.55-25.34Q41.45-25.34 43.19-24.93 44.92-24.51 46.25-23.61 47.58-22.71 48.37-21.31 49.17-19.92 49.17-17.94L49.17-17.94 49.17-4.15Q49.17-3.93 49.19-3.66 49.22-3.39 49.31-3.17 49.41-2.95 49.61-2.81 49.8-2.66 50.17-2.66L50.17-2.66Q50.61-2.66 50.99-2.99 51.36-3.32 51.66-3.66L51.66-3.66 52.27-3.15Q51.9-2.64 51.39-2.03 50.88-1.42 50.14-0.88 49.41-0.34 48.44 0.02 47.46 0.39 46.21 0.39L46.21 0.39Q44.68 0.39 43.48-0.52 42.28-1.44 41.92-3.34L41.92-3.34Q41.14-2.29 40.29-1.59 39.45-0.88 38.57-0.44 37.69 0 36.8 0.2 35.91 0.39 35.01 0.39L35.01 0.39Q33.84 0.39 32.74 0.02 31.64-0.34 30.77-1.14 29.9-1.93 29.38-3.2 28.85-4.47 28.85-6.3L28.85-6.3Q28.85-8.52 29.73-9.94 30.61-11.35 32.04-12.32 33.47-13.28 35.29-13.96 37.11-14.65 39.01-15.41L39.01-15.41Q40.43-15.97 41.07-17.08 41.72-18.19 41.72-19.36L41.72-19.36Q41.72-21.17 40.66-22.25 39.6-23.34 37.77-23.34ZM63.11-33.96L63.11-18.7Q63.96-19.85 64.94-21.03 65.91-22.22 67.04-23.17 68.16-24.12 69.48-24.73 70.8-25.34 72.36-25.34L72.36-25.34Q73.75-25.34 74.68-24.79 75.61-24.24 76.18-23.47 76.75-22.71 76.98-21.88 77.22-21.04 77.22-20.46L77.22-20.46Q77.22-19.38 76.94-18.23 76.66-17.07 75.98-15.93 75.31-14.79 74.19-13.73 73.07-12.67 71.36-11.79L71.36-11.79Q73.65-6.93 75.83-3.43 78 0.07 80.01 2.33 82.03 4.59 83.88 5.66 85.74 6.74 87.42 6.74L87.42 6.74Q87.71 6.74 88.01 6.67 88.3 6.59 88.54 6.49L88.54 6.49Q88.81 6.4 89.11 6.25L89.11 6.25 89.57 7.1Q88.91 7.47 88.23 7.8 87.54 8.13 86.66 8.37 85.79 8.62 84.64 8.76 83.49 8.91 81.9 8.91L81.9 8.91Q80.46 8.91 79.06 8.57 77.66 8.23 76.24 7.35 74.82 6.47 73.37 5 71.92 3.54 70.39 1.29 68.87-0.95 67.26-4.05 65.64-7.15 63.91-11.3L63.91-11.3Q66.25-13.04 67.6-14.51 68.94-15.99 69.62-17.19 70.31-18.38 70.48-19.31 70.65-20.24 70.65-20.9L70.65-20.9Q70.65-21 70.62-21.23 70.6-21.46 70.47-21.68 70.33-21.9 70.08-22.07 69.82-22.24 69.36-22.24L69.36-22.24Q68.45-22.24 67.52-21.47 66.6-20.7 65.75-19.57 64.91-18.43 64.23-17.13 63.54-15.82 63.11-14.75L63.11-14.75 63.11-2.15Q63.11-1.83 63-1.39 62.89-0.95 62.48-0.56 62.08-0.17 61.31 0.11 60.54 0.39 59.25 0.39L59.25 0.39Q57.95 0.39 57.22 0.09 56.49-0.22 56.14-0.63 55.78-1.05 55.7-1.49 55.61-1.93 55.61-2.2L55.61-2.2 55.61-33.69Q55.61-34.4 55.28-34.92 54.95-35.45 54.17-35.45L54.17-35.45Q53.75-35.45 53.45-35.31 53.14-35.18 52.8-34.91L52.8-34.91 52.31-35.5Q52.88-35.96 53.56-36.41 54.24-36.87 55.06-37.21 55.88-37.55 56.81-37.77 57.73-37.99 58.76-37.99L58.76-37.99Q60.35-37.99 61.23-37.56 62.1-37.13 62.52-36.51 62.93-35.89 63.02-35.19 63.11-34.5 63.11-33.96L63.11-33.96ZM97.55-16.89L87.91-11.21Q87.91-10.42 88.14-9.51 88.37-8.59 88.81-7.67 89.25-6.74 89.9-5.9 90.54-5.05 91.39-4.39 92.23-3.74 93.25-3.34 94.28-2.95 95.5-2.95L95.5-2.95Q96.35-2.95 97.09-3.15 97.82-3.34 98.45-3.69 99.09-4.03 99.68-4.48 100.26-4.93 100.85-5.44L100.85-5.44 101.46-4.86Q100.9-4.1 100.02-3.2 99.14-2.29 97.89-1.5 96.65-0.71 94.99-0.18 93.33 0.34 91.2 0.34L91.2 0.34Q89.08 0.34 87.07-0.43 85.05-1.2 83.49-2.73 81.93-4.27 80.99-6.57 80.05-8.86 80.05-11.94L80.05-11.94Q80.05-14.16 80.61-16.02 81.17-17.87 82.13-19.36 83.1-20.85 84.38-21.97 85.66-23.1 87.08-23.84 88.49-24.58 89.97-24.96 91.45-25.34 92.81-25.34L92.81-25.34Q94.62-25.34 95.96-24.95 97.31-24.56 98.2-23.9 99.09-23.24 99.53-22.38 99.97-21.51 99.97-20.56L99.97-20.56Q99.97-19.41 99.31-18.49 98.65-17.58 97.55-16.89L97.55-16.89ZM87.66-13.21L92.81-16.16Q93.13-16.36 93.34-16.54 93.55-16.72 93.67-16.98 93.79-17.24 93.85-17.61 93.91-17.99 93.91-18.55L93.91-18.55Q93.91-19.17 93.78-19.91 93.64-20.65 93.33-21.31 93.01-21.97 92.52-22.41 92.03-22.85 91.35-22.85L91.35-22.85Q90.47-22.85 89.85-22.33 89.23-21.8 88.82-20.97 88.42-20.14 88.19-19.08 87.96-18.02 87.83-16.94 87.71-15.87 87.69-14.88 87.66-13.89 87.66-13.21L87.66-13.21ZM123.79-21.29L123.79-2.2Q123.79-1.88 123.68-1.43 123.57-0.98 123.17-0.57 122.77-0.17 122.01 0.11 121.25 0.39 119.96 0.39L119.96 0.39Q118.66 0.39 117.93 0.09 117.2-0.22 116.83-0.63 116.47-1.05 116.38-1.49 116.3-1.93 116.3-2.2L116.3-2.2 116.3-21.04Q116.3-21.75 115.97-22.28 115.64-22.8 114.86-22.8L114.86-22.8Q114.44-22.8 114.15-22.66 113.85-22.51 113.51-22.24L113.51-22.24 113-22.85Q113.56-23.32 114.26-23.77 114.95-24.22 115.76-24.56 116.56-24.9 117.49-25.12 118.42-25.34 119.45-25.34L119.45-25.34Q121.03-25.34 121.91-24.91 122.79-24.49 123.21-23.86 123.62-23.24 123.71-22.53 123.79-21.83 123.79-21.29L123.79-21.29ZM115.54-30.91L115.54-30.91Q115.54-31.59 115.84-32.21 116.15-32.84 116.7-33.3 117.25-33.76 117.97-34.03 118.69-34.3 119.54-34.3L119.54-34.3Q120.37-34.3 121.09-34.03 121.81-33.76 122.35-33.3 122.89-32.84 123.19-32.21 123.5-31.59 123.5-30.91L123.5-30.91Q123.5-30.2 123.19-29.59 122.89-28.98 122.35-28.53 121.81-28.08 121.09-27.81 120.37-27.54 119.54-27.54L119.54-27.54Q118.69-27.54 117.97-27.81 117.25-28.08 116.7-28.53 116.15-28.98 115.84-29.59 115.54-30.2 115.54-30.91ZM141.64-23.24L137.85-23.24 137.85-5.2Q137.85-3.91 138.34-3.41 138.83-2.91 139.68-2.91L139.68-2.91Q140.34-2.91 140.85-3.27 141.37-3.64 141.73-4.1L141.73-4.1Q142.17-4.61 142.49-5.3L142.49-5.3 143.25-4.96Q142.88-4.17 142.38-3.25 141.88-2.32 141.05-1.53 140.22-0.73 138.96-0.2 137.7 0.34 135.8 0.34L135.8 0.34Q134.73 0.34 133.74 0.02 132.75-0.29 131.98-0.98 131.21-1.66 130.75-2.69 130.28-3.71 130.28-5.15L130.28-5.15 130.28-23.24 127.55-23.24 127.55-25Q128.23-25 129.45-25.35 130.67-25.71 131.96-26.54 133.24-27.37 134.34-28.76 135.43-30.15 135.9-32.2L135.9-32.2 137.85-32.2 137.85-25 141.83-25Q143.78-25 143.78-25.66L143.78-25.66Q143.78-25.9 143.54-25.99 143.3-26.07 142.99-26.21 142.69-26.34 142.44-26.59 142.2-26.83 142.2-27.39L142.2-27.39Q142.2-28.08 142.62-28.47 143.05-28.86 143.74-28.86L143.74-28.86Q144.17-28.86 144.5-28.67 144.83-28.49 145.05-28.19 145.27-27.88 145.38-27.49 145.49-27.1 145.49-26.71L145.49-26.71Q145.49-25.12 144.58-24.18 143.66-23.24 141.64-23.24L141.64-23.24ZM173.73-34.4L173.73-34.4Q173.08-34.4 172.2-34.13 171.32-33.86 170.4-33.12 169.49-32.37 168.61-31.03 167.73-29.69 167.03-27.55 166.34-25.42 165.91-22.36 165.48-19.31 165.48-15.16L165.48-15.16Q165.48-11.21 165.91-8.3 166.34-5.4 167.06-3.36 167.78-1.32 168.71-0.02 169.63 1.27 170.66 1.99 171.68 2.71 172.71 2.98 173.73 3.25 174.64 3.25L174.64 3.25Q175.59 3.25 176.57 3 177.54 2.76 178.48 2.29 179.42 1.83 180.29 1.17 181.16 0.51 181.89-0.34L181.89-0.34 182.99 0.76Q182.26 1.66 181.23 2.6 180.2 3.54 178.85 4.31 177.49 5.08 175.81 5.57 174.13 6.05 172.07 6.05L172.07 6.05Q168.88 6.05 166.13 4.83 163.38 3.61 161.34 1.04 159.31-1.54 158.15-5.57 156.99-9.59 156.99-15.21L156.99-15.21Q156.99-20.48 158.21-24.46 159.43-28.44 161.53-31.12 163.63-33.79 166.46-35.14 169.29-36.5 172.49-36.5L172.49-36.5Q174.61-36.5 176.36-36.1 178.11-35.69 179.37-34.92 180.64-34.16 181.34-33.02 182.04-31.88 182.04-30.44L182.04-30.44Q182.04-29.79 181.82-29.06 181.6-28.34 181.14-27.75 180.69-27.15 180.03-26.77 179.37-26.39 178.5-26.39L178.5-26.39Q177.71-26.39 177.29-26.73 176.86-27.08 176.65-27.64 176.44-28.2 176.38-28.92 176.32-29.64 176.3-30.4 176.27-31.15 176.19-31.87 176.1-32.59 175.85-33.15 175.59-33.72 175.1-34.06 174.61-34.4 173.73-34.4ZM192.82-33.96L192.82-20.7Q193.73-22 194.87-23.02L194.87-23.02Q195.34-23.46 195.91-23.88 196.49-24.29 197.13-24.62 197.78-24.95 198.5-25.15 199.22-25.34 199.98-25.34L199.98-25.34Q201.61-25.34 202.91-24.71 204.2-24.07 205.08-22.58 205.96-21.09 206.42-18.64 206.89-16.19 206.89-12.55L206.89-12.55Q206.89-9.01 206.25-6.4 205.62-3.78 204.59-1.95 203.57-0.12 202.27 1.04 200.98 2.2 199.66 2.86 198.34 3.52 197.12 3.77 195.9 4.03 195.02 4.05L195.02 4.05 194.78 3.05Q195.88 2.78 196.73 2.05 197.58 1.32 198.17-0.35 198.76-2.03 199.06-4.86 199.37-7.69 199.37-12.16L199.37-12.16Q199.37-15.23 199.09-17.08 198.81-18.92 198.35-19.89 197.9-20.85 197.33-21.15 196.75-21.46 196.17-21.46L196.17-21.46Q195.46-21.46 194.92-21.08 194.39-20.7 193.98-20.21 193.58-19.73 193.3-19.24 193.02-18.75 192.82-18.51L192.82-18.51 192.82-2.2Q192.82-1.88 192.73-1.43 192.63-0.98 192.25-0.57 191.87-0.17 191.13 0.11 190.38 0.39 189.09 0.39L189.09 0.39Q187.79 0.39 187.04 0.09 186.28-0.22 185.9-0.63 185.52-1.05 185.43-1.49 185.33-1.93 185.33-2.2L185.33-2.2 185.33-33.69Q185.33-34.4 185-34.92 184.67-35.45 183.89-35.45L183.89-35.45Q183.47-35.45 183.17-35.31 182.86-35.18 182.52-34.91L182.52-34.91 182.03-35.5Q182.59-35.96 183.28-36.41 183.96-36.87 184.78-37.21 185.6-37.55 186.53-37.77 187.45-37.99 188.48-37.99L188.48-37.99Q190.07-37.99 190.94-37.56 191.82-37.13 192.24-36.51 192.65-35.89 192.74-35.19 192.82-34.5 192.82-33.96L192.82-33.96ZM227.88-16.89L218.24-11.21Q218.24-10.42 218.47-9.51 218.7-8.59 219.14-7.67 219.58-6.74 220.23-5.9 220.87-5.05 221.72-4.39 222.56-3.74 223.58-3.34 224.61-2.95 225.83-2.95L225.83-2.95Q226.68-2.95 227.42-3.15 228.15-3.34 228.78-3.69 229.42-4.03 230-4.48 230.59-4.93 231.18-5.44L231.18-5.44 231.79-4.86Q231.23-4.1 230.35-3.2 229.47-2.29 228.22-1.5 226.98-0.71 225.32-0.18 223.66 0.34 221.53 0.34L221.53 0.34Q219.41 0.34 217.39-0.43 215.38-1.2 213.82-2.73 212.26-4.27 211.32-6.57 210.38-8.86 210.38-11.94L210.38-11.94Q210.38-14.16 210.94-16.02 211.5-17.87 212.46-19.36 213.43-20.85 214.71-21.97 215.99-23.1 217.41-23.84 218.82-24.58 220.3-24.96 221.78-25.34 223.14-25.34L223.14-25.34Q224.95-25.34 226.29-24.95 227.64-24.56 228.53-23.9 229.42-23.24 229.86-22.38 230.3-21.51 230.3-20.56L230.3-20.56Q230.3-19.41 229.64-18.49 228.98-17.58 227.88-16.89L227.88-16.89ZM217.99-13.21L223.14-16.16Q223.46-16.36 223.67-16.54 223.88-16.72 224-16.98 224.12-17.24 224.18-17.61 224.24-17.99 224.24-18.55L224.24-18.55Q224.24-19.17 224.11-19.91 223.97-20.65 223.66-21.31 223.34-21.97 222.85-22.41 222.36-22.85 221.68-22.85L221.68-22.85Q220.8-22.85 220.18-22.33 219.56-21.8 219.15-20.97 218.75-20.14 218.52-19.08 218.29-18.02 218.16-16.94 218.04-15.87 218.02-14.88 217.99-13.89 217.99-13.21L217.99-13.21ZM246.07-6.69L246.07-12.65Q246.07-13.26 245.68-13.57 245.29-13.89 244.67-13.89L244.67-13.89Q243.82-13.89 243.05-13.5 242.28-13.11 241.7-12.35 241.11-11.6 240.77-10.49 240.43-9.38 240.43-7.91L240.43-7.91Q240.43-6.49 240.63-5.57 240.84-4.64 241.2-4.09 241.55-3.54 242.01-3.32 242.48-3.1 242.99-3.1L242.99-3.1Q243.62-3.1 244.19-3.43 244.75-3.76 245.16-4.27 245.58-4.79 245.82-5.42 246.07-6.05 246.07-6.69L246.07-6.69ZM242.18-23.34L242.18-23.34Q241.35-23.34 240.65-23.14 239.94-22.95 239.43-22.66 238.91-22.36 238.62-22.01 238.33-21.66 238.33-21.34L238.33-21.34Q238.33-20.97 238.71-20.81 239.08-20.65 239.55-20.45 240.01-20.24 240.39-19.86 240.77-19.48 240.77-18.7L240.77-18.7Q240.77-18.19 240.56-17.76 240.35-17.33 240-17 239.65-16.67 239.17-16.49 238.69-16.31 238.18-16.31L238.18-16.31Q236.81-16.31 235.97-17.24 235.13-18.16 235.13-19.7L235.13-19.7Q235.13-21.19 235.91-22.25 236.69-23.32 237.95-24 239.21-24.68 240.79-25.01 242.38-25.34 243.97-25.34L243.97-25.34Q245.87-25.34 247.6-24.93 249.34-24.51 250.67-23.61 252-22.71 252.79-21.31 253.59-19.92 253.59-17.94L253.59-17.94 253.59-4.15Q253.59-3.93 253.61-3.66 253.63-3.39 253.73-3.17 253.83-2.95 254.03-2.81 254.22-2.66 254.59-2.66L254.59-2.66Q255.03-2.66 255.4-2.99 255.78-3.32 256.08-3.66L256.08-3.66 256.69-3.15Q256.32-2.64 255.81-2.03 255.29-1.42 254.56-0.88 253.83-0.34 252.85 0.02 251.88 0.39 250.63 0.39L250.63 0.39Q249.09 0.39 247.9-0.52 246.7-1.44 246.33-3.34L246.33-3.34Q245.55-2.29 244.71-1.59 243.87-0.88 242.99-0.44 242.11 0 241.22 0.2 240.33 0.39 239.43 0.39L239.43 0.39Q238.25 0.39 237.16 0.02 236.06-0.34 235.19-1.14 234.32-1.93 233.8-3.2 233.27-4.47 233.27-6.3L233.27-6.3Q233.27-8.52 234.15-9.94 235.03-11.35 236.46-12.32 237.89-13.28 239.71-13.96 241.53-14.65 243.43-15.41L243.43-15.41Q244.85-15.97 245.49-17.08 246.14-18.19 246.14-19.36L246.14-19.36Q246.14-21.17 245.08-22.25 244.02-23.34 242.18-23.34ZM267.82-23.39L267.82-23.39Q267.26-23.39 266.75-23.24 266.25-23.1 265.86-22.77 265.47-22.44 265.25-21.94 265.03-21.44 265.03-20.75L265.03-20.75Q265.03-19.8 265.73-18.86 266.43-17.92 267.46-16.91 268.5-15.89 269.71-14.81 270.92-13.72 271.95-12.51 272.99-11.3 273.69-9.94 274.38-8.57 274.38-7.01L274.38-7.01Q274.38-5.25 273.79-3.88 273.19-2.51 272.08-1.56 270.97-0.61 269.39-0.11 267.82 0.39 265.89 0.39L265.89 0.39Q264.2 0.39 262.84-0.09 261.47-0.56 260.41-1.26 259.35-1.95 258.59-2.73 257.83-3.52 257.42-4.15L257.42-4.15 258.27-4.76Q258.59-4.39 259.08-3.97 259.56-3.54 260.16-3.17 260.76-2.81 261.44-2.58 262.13-2.34 262.84-2.34L262.84-2.34Q264.59-2.34 265.72-3.19 266.84-4.03 266.84-5.69L266.84-5.69Q266.84-6.62 266.23-7.6 265.62-8.59 264.69-9.64 263.76-10.69 262.69-11.82 261.62-12.94 260.69-14.14 259.76-15.33 259.15-16.6 258.54-17.87 258.54-19.24L258.54-19.24Q258.54-20.78 259.16-21.92 259.78-23.07 260.82-23.83 261.86-24.58 263.19-24.96 264.52-25.34 265.94-25.34L265.94-25.34Q267.57-25.34 268.92-25.05 270.26-24.76 271.22-24.16 272.19-23.56 272.71-22.66 273.24-21.75 273.24-20.56L273.24-20.56Q273.24-19.63 272.63-18.95 272.02-18.26 270.92-18.26L270.92-18.26Q269.87-18.26 269.32-18.71 268.77-19.17 268.77-19.95L268.77-19.95Q268.77-20.46 269.03-20.75 269.28-21.04 269.6-21.23 269.92-21.41 270.17-21.55 270.43-21.68 270.43-21.9L270.43-21.9Q270.43-22.58 269.7-22.99 268.96-23.39 267.82-23.39ZM298.38-21.51L298.38-21.51Q298.38-17.04 297.51-12.88 296.65-8.72 295.12-5.07 293.6-1.42 291.5 1.6 289.4 4.61 286.93 6.76 284.46 8.91 281.72 10.11 278.97 11.3 276.16 11.3L276.16 11.3Q274.02 11.3 272.84 10.58 271.67 9.86 271.67 8.64L271.67 8.64Q271.67 8.18 271.82 7.74 271.96 7.3 272.21 6.96 272.45 6.62 272.79 6.41 273.14 6.2 273.53 6.2L273.53 6.2Q273.99 6.2 274.3 6.67 274.6 7.13 274.94 7.68 275.28 8.23 275.77 8.69 276.26 9.16 277.12 9.16L277.12 9.16Q278.21 9.16 279.41 8.78 280.61 8.4 281.82 7.69 283.02 6.98 284.23 5.97 285.44 4.96 286.61 3.71L286.61 3.71Q285.93 1.25 285.04-1.67 284.15-4.59 283.16-7.54 282.17-10.5 281.13-13.24 280.09-15.99 279.11-18.12 278.12-20.24 277.2-21.52 276.29-22.8 275.58-22.8L275.58-22.8Q275.11-22.8 274.86-22.66 274.6-22.51 274.26-22.24L274.26-22.24 273.77-22.85Q274.26-23.27 274.8-23.71 275.33-24.15 276.07-24.51 276.8-24.88 277.78-25.11 278.75-25.34 280.12-25.34L280.12-25.34Q281.61-25.34 282.89-24.67 284.17-24 285.22-22.19L285.22-22.19Q285.98-20.85 286.8-18.97 287.61-17.09 288.44-14.77 289.27-12.45 290.12-9.75 290.96-7.06 291.81-4.1L291.81-4.1Q293.33-7.28 294.25-10.83 295.18-14.38 295.18-18.14L295.18-18.14Q295.18-19.48 295.01-20.43 294.84-21.39 294.62-22.06 294.4-22.73 294.23-23.21 294.06-23.68 294.06-24.05L294.06-24.05Q294.06-24.41 294.35-24.67 294.65-24.93 295.06-25.07 295.48-25.22 295.9-25.28 296.33-25.34 296.62-25.34L296.62-25.34Q297.28-25.34 297.64-25.07 297.99-24.8 298.16-24.3 298.33-23.8 298.36-23.1 298.38-22.39 298.38-21.51Z" opacity="1" transform="matrix(1,0,0,1,0,0)" fill="#ffffff" class="wordmark-text-0" data-fill-palette-color="primary" id="text-0"></path></svg></g></svg></g></svg></g></svg></g></svg></g><defs></defs></svg><rect width="395.52" height="59.832221742158524" fill="none" stroke="none" visibility="hidden"></rect></g></svg></g></svg>